<svg xmlns="http://www.w3.org/2000/svg" viewBox="0 0 75.53 664.95"><defs><style>.cls-1{fill:#ff7bac;}.cls-1,.cls-2{stroke:#ff3d2e;}.cls-1,.cls-2,.cls-4,.cls-6{stroke-linecap:round;stroke-linejoin:round;stroke-width:0.75px;}.cls-2,.cls-6{fill:none;}.cls-3{isolation:isolate;}.cls-4,.cls-5{fill:#fff;}.cls-4,.cls-6{stroke:#272f32;}</style></defs><title>Asset 7</title><g id="Layer_2" data-name="Layer 2"><g id="Layer_5" data-name="Layer 5"><line class="cls-1" x1="46.54" y1="72.26" x2="46.54" y2="641.55"/><polygon class="cls-2" points="24.56 85.51 2.58 72.27 24.26 59.02 46.54 72.27 24.56 85.51"/><polygon class="cls-2" points="24.56 63.38 2.58 50.14 24.26 36.89 46.54 50.14 24.56 63.38"/><line class="cls-2" x1="24.56" y1="63.38" x2="24.56" y2="85.51"/><line class="cls-2" x1="46.54" y1="50.14" x2="46.54" y2="72.27"/><line class="cls-2" x1="2.58" y1="50.14" x2="2.58" y2="72.27"/><line class="cls-2" x1="24.26" y1="36.89" x2="24.26" y2="59.02"/><g class="cls-3"><g class="cls-3"><path class="cls-4" d="M35.18,36.18l-.59,3.11L31.76,42q.77-2.2-1.93-5.58A9.09,9.09,0,0,0,26,33.34,5.93,5.93,0,0,0,22.5,33a8.83,8.83,0,0,0-2.88,1.28l1-4.14L23,28.5a9.15,9.15,0,0,1,2.88-1.28,5.92,5.92,0,0,1,3.52.32,9.09,9.09,0,0,1,3.81,3.06q2.7,3.38,1.93,5.58"/></g></g><g class="cls-3"><path class="cls-5" d="M41.05,38.87l-3.42,5.8A11.93,11.93,0,0,1,34,48.28l-10.21,7,3.42-5.8,10.22-7A11.88,11.88,0,0,0,41.05,38.87Z"/><path class="cls-6" d="M41.05,38.87l-3.42,5.8A11.93,11.93,0,0,1,34,48.28l-10.21,7,3.42-5.8,10.22-7A11.88,11.88,0,0,0,41.05,38.87Z"/></g><path class="cls-4" d="M36.31,24a15.5,15.5,0,0,1,2.95,2.85A11.88,11.88,0,0,1,42,32.37a11.31,11.31,0,0,1-.17,4.6q-.73,3-4.39,5.51l-10.22,7L11.81,30.19l7.87-5.37a24.16,24.16,0,0,1,3.19-1.88,16.87,16.87,0,0,1,2.69-1,11.78,11.78,0,0,1,2.34-.41,13,13,0,0,1,2,.05,12.08,12.08,0,0,1,3.23.74A13.26,13.26,0,0,1,36.31,24ZM35.18,36.18q.76-2.2-1.93-5.58a9.09,9.09,0,0,0-3.81-3.06,5.92,5.92,0,0,0-3.52-.32A9.15,9.15,0,0,0,23,28.5l-2.43,1.66,9.13,11.41,2.43-1.66a7.46,7.46,0,0,0,3-3.73"/><polygon class="cls-4" points="27.22 49.45 23.8 55.25 8.39 35.99 11.81 30.19 27.22 49.45"/><g class="cls-3"><polygon class="cls-4" points="5.48 15.38 8.52 21.66 3.41 17 0.38 10.73 5.48 15.38"/><polygon class="cls-4" points="10.69 13.18 13.72 19.46 8.52 21.66 5.48 15.38 10.69 13.18"/><polygon class="cls-4" points="24.49 7.3 27.53 13.58 18.18 17.57 15.15 11.29 24.49 7.3"/><polygon class="cls-4" points="17.87 19.72 20.91 26 13.72 19.46 10.69 13.18 17.87 19.72"/><path class="cls-4" d="M32.11,5.4,20.5,29.05,15.39,24.4l2.48-4.68-7.18-6.54-5.21,2.2L.38,10.73,26.6.38Zm-17,5.89L20,15.72,24.49,7.3l-9.34,4"/><polygon class="cls-4" points="32.11 5.4 35.15 11.68 23.54 35.33 20.5 29.05 32.11 5.4"/><polygon class="cls-4" points="20.5 29.05 23.54 35.33 18.43 30.68 15.39 24.4 20.5 29.05"/></g><polygon class="cls-2" points="60.85 664.58 46.54 655.95 60.65 647.33 75.16 655.95 60.85 664.58"/><polygon class="cls-2" points="60.85 650.17 46.54 641.55 60.65 632.92 75.16 641.55 60.85 650.17"/><line class="cls-2" x1="60.85" y1="650.17" x2="60.85" y2="664.57"/><line class="cls-2" x1="75.16" y1="641.55" x2="75.16" y2="655.95"/><line class="cls-2" x1="46.54" y1="641.55" x2="46.54" y2="655.95"/><line class="cls-2" x1="60.65" y1="632.92" x2="60.65" y2="647.33"/></g></g></svg>